<mxfile host="app.diagrams.net" modified="2021-11-23T08:19:45.295Z" agent="5.0 (Macintosh; Intel Mac OS X 10_15_7) AppleWebKit/537.36 (KHTML, like Gecko) Chrome/95.0.4638.69 Safari/537.36" etag="_l84bvzxxGq-gttDv1n1" version="14.6.0" type="github">
  <diagram id="prtHgNgQTEPvFCAcTncT" name="Page-1">
    <mxGraphModel dx="1136" dy="771" grid="1" gridSize="10" guides="1" tooltips="1" connect="1" arrows="1" fold="1" page="1" pageScale="1" pageWidth="827" pageHeight="1169" math="0" shadow="0">
      <root>
        <mxCell id="0" />
        <mxCell id="1" parent="0" />
        <mxCell id="bsJFNkMjFdL67z3JUjti-1" value="web app" style="whiteSpace=wrap;html=1;aspect=fixed;" parent="1" vertex="1">
          <mxGeometry x="350" y="530" width="80" height="80" as="geometry" />
        </mxCell>
        <mxCell id="bsJFNkMjFdL67z3JUjti-3" value="polkadot / xcm dmp" style="rounded=1;whiteSpace=wrap;html=1;" parent="1" vertex="1">
          <mxGeometry x="160" y="540" width="120" height="60" as="geometry" />
        </mxCell>
        <mxCell id="bsJFNkMjFdL67z3JUjti-4" value="parallel / crowdloan" style="rounded=1;whiteSpace=wrap;html=1;fillColor=#d5e8d4;strokeColor=#82b366;" parent="1" vertex="1">
          <mxGeometry x="510" y="540" width="120" height="60" as="geometry" />
        </mxCell>
        <mxCell id="bsJFNkMjFdL67z3JUjti-6" value="" style="endArrow=classic;startArrow=classic;html=1;exitX=1;exitY=0.5;exitDx=0;exitDy=0;" parent="1" source="bsJFNkMjFdL67z3JUjti-1" target="bsJFNkMjFdL67z3JUjti-4" edge="1">
          <mxGeometry width="50" height="50" relative="1" as="geometry">
            <mxPoint x="430" y="580" as="sourcePoint" />
            <mxPoint x="480" y="530" as="targetPoint" />
          </mxGeometry>
        </mxCell>
        <mxCell id="bsJFNkMjFdL67z3JUjti-7" value="" style="endArrow=classic;startArrow=classic;html=1;entryX=0;entryY=0.5;entryDx=0;entryDy=0;exitX=1;exitY=0.5;exitDx=0;exitDy=0;" parent="1" source="bsJFNkMjFdL67z3JUjti-3" target="bsJFNkMjFdL67z3JUjti-1" edge="1">
          <mxGeometry width="50" height="50" relative="1" as="geometry">
            <mxPoint x="280" y="590" as="sourcePoint" />
            <mxPoint x="330" y="540" as="targetPoint" />
          </mxGeometry>
        </mxCell>
        <mxCell id="bsJFNkMjFdL67z3JUjti-8" value="backend" style="whiteSpace=wrap;html=1;aspect=fixed;" parent="1" vertex="1">
          <mxGeometry x="350" y="410" width="80" height="80" as="geometry" />
        </mxCell>
        <mxCell id="bsJFNkMjFdL67z3JUjti-9" value="subvis" style="shape=cylinder3;whiteSpace=wrap;html=1;boundedLbl=1;backgroundOutline=1;size=9;" parent="1" vertex="1">
          <mxGeometry x="360" y="270" width="60" height="80" as="geometry" />
        </mxCell>
        <mxCell id="bsJFNkMjFdL67z3JUjti-10" value="auction loan" style="shape=cylinder3;whiteSpace=wrap;html=1;boundedLbl=1;backgroundOutline=1;size=9;fillColor=#ffe6cc;strokeColor=#d79b00;" parent="1" vertex="1">
          <mxGeometry x="480" y="270" width="60" height="80" as="geometry" />
        </mxCell>
        <mxCell id="bsJFNkMjFdL67z3JUjti-11" value="redis" style="shape=cylinder3;whiteSpace=wrap;html=1;boundedLbl=1;backgroundOutline=1;size=15;" parent="1" vertex="1">
          <mxGeometry x="510" y="410" width="60" height="80" as="geometry" />
        </mxCell>
        <mxCell id="bsJFNkMjFdL67z3JUjti-14" value="" style="endArrow=classic;startArrow=classic;html=1;entryX=0.5;entryY=1;entryDx=0;entryDy=0;entryPerimeter=0;exitX=0.75;exitY=0;exitDx=0;exitDy=0;" parent="1" source="bsJFNkMjFdL67z3JUjti-8" target="bsJFNkMjFdL67z3JUjti-10" edge="1">
          <mxGeometry width="50" height="50" relative="1" as="geometry">
            <mxPoint x="430" y="600" as="sourcePoint" />
            <mxPoint x="480" y="550" as="targetPoint" />
          </mxGeometry>
        </mxCell>
        <mxCell id="bsJFNkMjFdL67z3JUjti-17" value="" style="endArrow=classic;startArrow=classic;html=1;entryX=0.5;entryY=1;entryDx=0;entryDy=0;entryPerimeter=0;exitX=0.5;exitY=0;exitDx=0;exitDy=0;" parent="1" source="bsJFNkMjFdL67z3JUjti-8" target="bsJFNkMjFdL67z3JUjti-9" edge="1">
          <mxGeometry width="50" height="50" relative="1" as="geometry">
            <mxPoint x="290" y="400" as="sourcePoint" />
            <mxPoint x="340" y="350" as="targetPoint" />
            <Array as="points" />
          </mxGeometry>
        </mxCell>
        <mxCell id="bsJFNkMjFdL67z3JUjti-18" value="" style="endArrow=classic;startArrow=classic;html=1;entryX=0.5;entryY=1;entryDx=0;entryDy=0;exitX=0.5;exitY=0;exitDx=0;exitDy=0;" parent="1" source="bsJFNkMjFdL67z3JUjti-1" target="bsJFNkMjFdL67z3JUjti-8" edge="1">
          <mxGeometry width="50" height="50" relative="1" as="geometry">
            <mxPoint x="430" y="600" as="sourcePoint" />
            <mxPoint x="480" y="550" as="targetPoint" />
          </mxGeometry>
        </mxCell>
        <mxCell id="bsJFNkMjFdL67z3JUjti-19" value="" style="endArrow=classic;startArrow=classic;html=1;entryX=0;entryY=0.5;entryDx=0;entryDy=0;entryPerimeter=0;" parent="1" target="bsJFNkMjFdL67z3JUjti-11" edge="1">
          <mxGeometry width="50" height="50" relative="1" as="geometry">
            <mxPoint x="431" y="450" as="sourcePoint" />
            <mxPoint x="490" y="400" as="targetPoint" />
          </mxGeometry>
        </mxCell>
        <mxCell id="bsJFNkMjFdL67z3JUjti-20" value="parallel" style="shape=cylinder3;whiteSpace=wrap;html=1;boundedLbl=1;backgroundOutline=1;size=7;fillColor=#d5e8d4;strokeColor=#82b366;" parent="1" vertex="1">
          <mxGeometry x="230" y="270" width="60" height="80" as="geometry" />
        </mxCell>
        <mxCell id="bsJFNkMjFdL67z3JUjti-21" value="" style="endArrow=classic;startArrow=classic;html=1;entryX=0.5;entryY=1;entryDx=0;entryDy=0;entryPerimeter=0;exitX=0.25;exitY=0;exitDx=0;exitDy=0;" parent="1" source="bsJFNkMjFdL67z3JUjti-8" target="bsJFNkMjFdL67z3JUjti-20" edge="1">
          <mxGeometry width="50" height="50" relative="1" as="geometry">
            <mxPoint x="240" y="420" as="sourcePoint" />
            <mxPoint x="290" y="370" as="targetPoint" />
          </mxGeometry>
        </mxCell>
        <mxCell id="bsJFNkMjFdL67z3JUjti-24" value="parallel subql" style="rounded=0;whiteSpace=wrap;html=1;" parent="1" vertex="1">
          <mxGeometry x="130" y="860" width="120" height="60" as="geometry" />
        </mxCell>
        <mxCell id="bsJFNkMjFdL67z3JUjti-25" value="use parachain rpc" style="rounded=0;whiteSpace=wrap;html=1;" parent="1" vertex="1">
          <mxGeometry x="210" y="1030" width="120" height="60" as="geometry" />
        </mxCell>
        <mxCell id="bsJFNkMjFdL67z3JUjti-26" value="txwrapper" style="rounded=0;whiteSpace=wrap;html=1;" parent="1" vertex="1">
          <mxGeometry x="80" y="1030" width="120" height="60" as="geometry" />
        </mxCell>
        <mxCell id="bsJFNkMjFdL67z3JUjti-27" value="vesting PARA" style="rounded=0;whiteSpace=wrap;html=1;" parent="1" vertex="1">
          <mxGeometry x="290" y="860" width="120" height="60" as="geometry" />
        </mxCell>
        <mxCell id="bsJFNkMjFdL67z3JUjti-30" value="subql on parachain:&lt;br&gt;subscribe all the contributions from crowdloan pallet" style="shape=callout;rounded=1;whiteSpace=wrap;html=1;perimeter=calloutPerimeter;" parent="1" vertex="1">
          <mxGeometry x="200" y="170" width="120" height="100" as="geometry" />
        </mxCell>
        <mxCell id="bsJFNkMjFdL67z3JUjti-37" value="subql on relaychain: subscribe all the funds information of projects" style="shape=callout;rounded=1;whiteSpace=wrap;html=1;perimeter=calloutPerimeter;" parent="1" vertex="1">
          <mxGeometry x="325" y="170" width="120" height="100" as="geometry" />
        </mxCell>
        <mxCell id="bsJFNkMjFdL67z3JUjti-38" value="subql on relaychain: subscribe all the contributions on the special multisig address" style="shape=callout;rounded=1;whiteSpace=wrap;html=1;perimeter=calloutPerimeter;" parent="1" vertex="1">
          <mxGeometry x="450" y="160" width="120" height="110" as="geometry" />
        </mxCell>
        <mxCell id="bsJFNkMjFdL67z3JUjti-43" value="cache the db records.&lt;br&gt;Using a second layer cache to prevent the cache concurrency&lt;br&gt;&amp;nbsp;" style="shape=callout;rounded=1;whiteSpace=wrap;html=1;perimeter=calloutPerimeter;position2=0;" parent="1" vertex="1">
          <mxGeometry x="580" y="340" width="120" height="110" as="geometry" />
        </mxCell>
        <mxCell id="bsJFNkMjFdL67z3JUjti-45" value="wss" style="text;html=1;align=center;verticalAlign=middle;resizable=0;points=[];autosize=1;strokeColor=none;" parent="1" vertex="1">
          <mxGeometry x="300" y="540" width="40" height="20" as="geometry" />
        </mxCell>
        <mxCell id="bsJFNkMjFdL67z3JUjti-46" value="wss" style="text;html=1;align=center;verticalAlign=middle;resizable=0;points=[];autosize=1;strokeColor=none;" parent="1" vertex="1">
          <mxGeometry x="450" y="540" width="40" height="20" as="geometry" />
        </mxCell>
        <mxCell id="bsJFNkMjFdL67z3JUjti-47" value="http" style="text;html=1;align=center;verticalAlign=middle;resizable=0;points=[];autosize=1;strokeColor=none;" parent="1" vertex="1">
          <mxGeometry x="390" y="500" width="40" height="20" as="geometry" />
        </mxCell>
      </root>
    </mxGraphModel>
  </diagram>
</mxfile>
